<svg width="159" height="47" viewBox="0 0 159 47" fill="none" xmlns="http://www.w3.org/2000/svg">
<path d="M63.0098 38.3136V11.4967H67.5543V38.3136H63.0098ZM54 14.8489V10.708H76.5641V14.8489H54Z" fill="#1C1C25"/>
<path d="M75.1248 38.3136V19.3841H79.4717V38.3136H75.1248ZM79.4717 27.7841L77.9701 27.0348C77.9701 24.6423 78.4969 22.7099 79.5507 21.2376C80.6309 19.739 82.251 18.9897 84.4113 18.9897C85.3597 18.9897 86.2159 19.1606 86.9799 19.5024C87.7439 19.8442 88.4552 20.3963 89.1138 21.1587L86.2686 24.077C85.9261 23.7089 85.5441 23.446 85.1226 23.2883C84.7011 23.1305 84.2137 23.0517 83.6605 23.0517C82.4486 23.0517 81.4475 23.4329 80.6572 24.1953C79.8669 24.9578 79.4717 26.154 79.4717 27.7841Z" fill="#1C1C25"/>
<path d="M98.5417 38.708C96.6975 38.708 95.0247 38.2742 93.523 37.4066C92.0214 36.5127 90.8227 35.3165 89.927 33.8179C89.0576 32.3193 88.6229 30.6498 88.6229 28.8094C88.6229 26.969 89.0576 25.3127 89.927 23.8404C90.8227 22.3681 92.0214 21.1981 93.523 20.3305C95.0247 19.4366 96.6975 18.9897 98.5417 18.9897C100.412 18.9897 102.098 19.4235 103.6 20.2911C105.101 21.1587 106.287 22.3418 107.156 23.8404C108.052 25.3127 108.5 26.969 108.5 28.8094C108.5 30.6498 108.052 32.3193 107.156 33.8179C106.287 35.3165 105.101 36.5127 103.6 37.4066C102.098 38.2742 100.412 38.708 98.5417 38.708ZM98.5417 34.5277C99.6218 34.5277 100.57 34.2911 101.387 33.8179C102.23 33.3183 102.875 32.6348 103.323 31.7672C103.797 30.8996 104.035 29.9136 104.035 28.8094C104.035 27.7052 103.797 26.7324 103.323 25.8911C102.849 25.0498 102.204 24.3925 101.387 23.9193C100.57 23.4197 99.6218 23.17 98.5417 23.17C97.4879 23.17 96.5395 23.4197 95.6965 23.9193C94.8798 24.3925 94.2343 25.0498 93.7601 25.8911C93.3123 26.7324 93.0883 27.7052 93.0883 28.8094C93.0883 29.9136 93.3123 30.8996 93.7601 31.7672C94.2343 32.6348 94.8798 33.3183 95.6965 33.8179C96.5395 34.2911 97.4879 34.5277 98.5417 34.5277Z" fill="#1C1C25"/>
<path d="M124.325 38.3136V27.3897C124.325 26.1277 123.917 25.0892 123.1 24.2742C122.31 23.4592 121.283 23.0517 120.018 23.0517C119.175 23.0517 118.424 23.2357 117.766 23.6038C117.107 23.9719 116.593 24.4845 116.225 25.1418C115.856 25.7991 115.671 26.5484 115.671 27.3897L113.972 26.4432C113.972 24.9972 114.288 23.7221 114.92 22.6179C115.553 21.4874 116.422 20.6066 117.529 19.9756C118.661 19.3183 119.926 18.9897 121.322 18.9897C122.745 18.9897 124.009 19.3578 125.116 20.0939C126.222 20.8038 127.092 21.7371 127.724 22.8939C128.356 24.0244 128.672 25.2075 128.672 26.4432V38.3136H124.325ZM111.324 38.3136V19.3841H115.671V38.3136H111.324Z" fill="#1C1C25"/>
<path d="M132.339 38.3136V19.3841H136.686L136.686 38.3136H132.339Z" fill="#1C1C25"/>
<path d="M152.784 38.3136L147.33 30.308L146.54 29.5981L139.19 19.3841H144.446L149.306 26.4038L150.057 27.0742L158 38.3136H152.784ZM138.834 38.3136L146.501 27.7052L149.03 30.8207L143.893 38.3136H138.834ZM150.452 29.5193L147.884 26.4432L152.626 19.3841H157.644L150.452 29.5193Z" fill="#1C1C25"/>
<path d="M108.419 15.3598C107.881 15.3598 107.42 15.2616 107.034 15.065C106.655 14.8685 106.31 14.5737 106 14.1806L106.854 13.2657C107.05 13.5436 107.277 13.7605 107.537 13.9163C107.796 14.0654 108.112 14.14 108.485 14.14C108.82 14.14 109.086 14.0688 109.282 13.9265C109.484 13.7842 109.586 13.5876 109.586 13.3369C109.586 13.12 109.529 12.9438 109.415 12.8083C109.301 12.6727 109.149 12.5575 108.96 12.4627C108.776 12.3678 108.571 12.2831 108.343 12.2085C108.122 12.1272 107.897 12.0357 107.669 11.9341C107.448 11.8324 107.243 11.707 107.053 11.5579C106.87 11.4021 106.721 11.2055 106.607 10.9683C106.493 10.7244 106.436 10.4194 106.436 10.0534C106.436 9.61971 106.534 9.25036 106.73 8.94539C106.926 8.64043 107.195 8.40662 107.537 8.24397C107.878 8.08132 108.264 8 108.694 8C109.149 8 109.56 8.09149 109.927 8.27447C110.294 8.45745 110.594 8.69464 110.828 8.98606L109.975 9.90095C109.778 9.67053 109.576 9.50111 109.367 9.39268C109.165 9.28424 108.934 9.23003 108.675 9.23003C108.378 9.23003 108.144 9.29102 107.973 9.41301C107.802 9.53499 107.717 9.7112 107.717 9.94161C107.717 10.1381 107.774 10.2974 107.888 10.4194C108.001 10.5414 108.15 10.6464 108.333 10.7345C108.523 10.8226 108.729 10.9073 108.95 10.9887C109.178 11.07 109.402 11.1615 109.624 11.2631C109.851 11.3648 110.057 11.4969 110.24 11.6596C110.43 11.8222 110.582 12.0323 110.695 12.2898C110.809 12.5406 110.866 12.8523 110.866 13.2251C110.866 13.8892 110.648 14.4111 110.212 14.7906C109.775 15.1701 109.178 15.3598 108.419 15.3598Z" fill="#0E59F2"/>
<path d="M115.82 15.37C115.333 15.37 114.877 15.2751 114.454 15.0854C114.036 14.8956 113.669 14.6347 113.353 14.3026C113.043 13.9638 112.8 13.5707 112.623 13.1234C112.446 12.6694 112.357 12.1848 112.357 11.6698C112.357 11.1547 112.443 10.6769 112.613 10.2364C112.79 9.78913 113.034 9.39945 113.344 9.06738C113.66 8.72853 114.027 8.46761 114.444 8.28463C114.862 8.09488 115.314 8 115.801 8C116.294 8 116.749 8.09488 117.167 8.28463C117.584 8.46761 117.948 8.72853 118.257 9.06738C118.574 9.39945 118.82 9.78913 118.997 10.2364C119.174 10.6837 119.263 11.1649 119.263 11.6799C119.263 12.195 119.174 12.6761 118.997 13.1234C118.82 13.5707 118.574 13.9638 118.257 14.3026C117.948 14.6347 117.584 14.8956 117.167 15.0854C116.755 15.2751 116.306 15.37 115.82 15.37ZM115.801 14.079C116.231 14.079 116.604 13.9773 116.92 13.774C117.236 13.5707 117.483 13.2895 117.66 12.9303C117.843 12.5711 117.935 12.1509 117.935 11.6698C117.935 11.3173 117.884 10.9954 117.783 10.704C117.682 10.4126 117.536 10.1619 117.347 9.95178C117.157 9.73492 116.933 9.56888 116.673 9.45367C116.414 9.33846 116.123 9.28086 115.801 9.28086C115.383 9.28086 115.013 9.38251 114.691 9.58582C114.375 9.78235 114.125 10.0602 113.941 10.4194C113.764 10.7786 113.676 11.1954 113.676 11.6698C113.676 12.0289 113.726 12.3576 113.828 12.6558C113.935 12.954 114.081 13.2081 114.264 13.4182C114.454 13.6283 114.678 13.791 114.937 13.9062C115.203 14.0214 115.491 14.079 115.801 14.079Z" fill="#0E59F2"/>
<path d="M121.044 15.2582V8.11182H122.334V15.2582H121.044ZM121.993 15.2582V14.0282H125.389V15.2582H121.993Z" fill="#0E59F2"/>
<path d="M129.47 15.3598C128.945 15.3598 128.477 15.2378 128.066 14.9939C127.661 14.7431 127.342 14.4009 127.108 13.9672C126.874 13.5334 126.757 13.0421 126.757 12.4932V8.11182H128.047V12.5338C128.047 12.8523 128.107 13.1268 128.227 13.3572C128.354 13.5876 128.525 13.7672 128.74 13.896C128.961 14.018 129.204 14.079 129.47 14.079C129.742 14.079 129.982 14.018 130.191 13.896C130.4 13.7672 130.564 13.5876 130.684 13.3572C130.811 13.1268 130.874 12.8557 130.874 12.544V8.11182H132.173V12.5033C132.173 13.0523 132.056 13.5436 131.822 13.9773C131.588 14.4043 131.269 14.7431 130.864 14.9939C130.466 15.2378 130.001 15.3598 129.47 15.3598Z" fill="#0E59F2"/>
<path d="M135.792 15.2582V8.2643H137.091V15.2582H135.792ZM133.667 9.34185V8.11182H139.216V9.34185H133.667Z" fill="#0E59F2"/>
<path d="M140.866 15.2582V8.11182H142.156V15.2582H140.866Z" fill="#0E59F2"/>
<path d="M147.404 15.37C146.917 15.37 146.462 15.2751 146.038 15.0854C145.621 14.8956 145.254 14.6347 144.938 14.3026C144.628 13.9638 144.384 13.5707 144.207 13.1234C144.03 12.6694 143.942 12.1848 143.942 11.6698C143.942 11.1547 144.027 10.6769 144.198 10.2364C144.375 9.78913 144.618 9.39945 144.928 9.06738C145.244 8.72853 145.611 8.46761 146.029 8.28463C146.446 8.09488 146.898 8 147.385 8C147.878 8 148.334 8.09488 148.751 8.28463C149.168 8.46761 149.532 8.72853 149.842 9.06738C150.158 9.39945 150.405 9.78913 150.582 10.2364C150.759 10.6837 150.847 11.1649 150.847 11.6799C150.847 12.195 150.759 12.6761 150.582 13.1234C150.405 13.5707 150.158 13.9638 149.842 14.3026C149.532 14.6347 149.168 14.8956 148.751 15.0854C148.34 15.2751 147.891 15.37 147.404 15.37ZM147.385 14.079C147.815 14.079 148.188 13.9773 148.504 13.774C148.821 13.5707 149.067 13.2895 149.244 12.9303C149.428 12.5711 149.519 12.1509 149.519 11.6698C149.519 11.3173 149.469 10.9954 149.368 10.704C149.266 10.4126 149.121 10.1619 148.931 9.95178C148.742 9.73492 148.517 9.56888 148.258 9.45367C147.998 9.33846 147.708 9.28086 147.385 9.28086C146.968 9.28086 146.598 9.38251 146.275 9.58582C145.959 9.78235 145.709 10.0602 145.526 10.4194C145.349 10.7786 145.26 11.1954 145.26 11.6698C145.26 12.0289 145.311 12.3576 145.412 12.6558C145.52 12.954 145.665 13.2081 145.848 13.4182C146.038 13.6283 146.263 13.791 146.522 13.9062C146.787 14.0214 147.075 14.079 147.385 14.079Z" fill="#0E59F2"/>
<path d="M152.629 15.2582V8.11182H153.53L153.919 9.49433V15.2582H152.629ZM157.239 15.2582L153.283 9.7688L153.53 8.11182L157.485 13.6012L157.239 15.2582ZM157.239 15.2582L156.869 13.9163V8.11182H158.168V15.2582H157.239Z" fill="#0E59F2"/>
<mask id="mask0_1292_6707" style="mask-type:luminance" maskUnits="userSpaceOnUse" x="0" y="0" width="42" height="47">
<path d="M1.65786 23.1067L5.02572 25.0478V33.2913L17.0687 40.2285L27.4955 34.2177V44.2566L23.8148 42.1385L17.0739 46.026L16.1876 45.516C13.4506 43.9443 3.98825 38.4955 0.432712 36.4347L0 36.1848V22.1543L1.65786 23.1067ZM29.6851 41.2954V37.413L36.8379 33.2913L36.8327 19.4065L26.4059 13.4008L35.1175 8.37877V12.6202L41.8584 16.5077V17.5278C41.8584 20.6815 41.8636 31.5843 41.8584 35.6904V36.1901L29.6851 43.2053V41.2954ZM21.3437 16.794L24.211 18.4489L27.4955 20.338V24.1215V26.479L30.7174 28.3369C30.9624 28.238 31.2335 28.186 31.515 28.186C32.7037 28.186 33.6629 29.1488 33.6629 30.3301C33.6629 31.5167 32.6985 32.4743 31.515 32.4743C30.3264 32.4743 29.3671 31.5115 29.3671 30.3301C29.3671 30.0543 29.4192 29.7889 29.5131 29.5495L30.4567 30.0907L30.8685 29.3777L29.9562 28.8521L27.4903 27.4314L25.5978 26.3385L21.3437 23.8873V16.794ZM27.0784 28.1496L24.211 29.8045L20.9266 31.6988L17.6421 29.8045L14.7748 28.1496L20.9266 24.6055L27.0784 28.1496ZM14.3629 27.4314V24.1215V20.338L17.6474 18.4489L19.691 17.2676V13.5518C19.4825 13.3852 19.3 13.1823 19.1592 12.9377C18.5649 11.9124 18.9194 10.601 19.9465 10.0077C20.9735 9.41441 22.2873 9.7683 22.8816 10.7935C23.4759 11.8188 23.1214 13.1302 22.0944 13.7235C21.8546 13.864 21.5991 13.9473 21.3384 13.9889V12.9064H20.5095V13.9577V16.7992V23.8873L14.3629 27.4314ZM11.141 28.3421L14.3629 26.4842V27.4314L12.8198 28.3213L11.897 28.8521L10.9846 29.3777L11.3965 30.0907L12.3401 29.5495C12.434 29.7941 12.4861 30.0543 12.4861 30.3301C12.4861 31.5167 11.5216 32.4743 10.3382 32.4743C9.14952 32.4743 8.19025 31.5115 8.19025 30.3301C8.19025 29.1436 9.15473 28.186 10.3382 28.186C10.6249 28.1912 10.8908 28.2432 11.141 28.3421ZM31.4472 7.97284L28.0794 9.91401L20.9266 5.79228L8.88364 12.7347V24.7512L0.177256 19.7291L3.8527 17.611V9.84116L4.73898 9.33114C7.4708 7.75427 16.9279 2.29506 20.4939 0.249802L20.9266 0L33.1051 7.01527L31.4472 7.97284Z" fill="white"/>
</mask>
<g mask="url(#mask0_1292_6707)">
<path d="M41.8688 0H0V46.026H41.8688V0Z" fill="#0E59F2"/>
</g>
</svg>
